# AST/ASF file generated using VICON BodyLanguage
# -----------------------------------------------
:version 1.10
:name VICON
:units
  mass 1.0
  length 0.45
  angle deg
:documentation
   .ast/.asf automatically generated from VICON data using
   VICON BodyBuilder and BodyLanguage model FoxedUp or BRILLIANT.MOD
:root
   order TX TY TZ RX RY RZ
   axis XYZ
   position 0 0 0  
   orientation 0 0 0 
:bonedata
  begin
     id 1 
     name lhipjoint
     direction 0.528046 -0.759594 0.379717 
     length 2.39752 
     axis 0 0 0  XYZ
  end
  begin
     id 2 
     name lfemur
     direction 0.34202 -0.939693 0  
     length 7.31175  
     axis 0 0 20  XYZ
    dof rx ry rz
    limits (-160.0 20.0)
           (-70.0 70.0)
           (-60.0 70.0)
  end
  begin
     id 3 
     name ltibia
     direction 0.34202 -0.939693 0   
     length 7.52482   
     axis 0 0 20   XYZ
    dof rx
    limits (-10.0 170.0)
  end
  begin
     id 4 
     name lfoot
     direction 0.0675379 -0.185559 0.980309   
     length 2.00961   
     axis -90 7.62852e-016 20   XYZ
    dof rx rz
    limits (-45.0 90.0)
           (-70.0 20.0)
  end
  begin
     id 5 
     name ltoes
     direction 1.5352e-011 -4.22286e-011 1   
     length 1.01383   
     axis -90 7.62852e-016 20   XYZ
    dof rx
    limits (-90.0 20.0)
  end
  begin
     id 6 
     name rhipjoint
     direction -0.510274 -0.769251 0.384544   
     length 2.36742  
     axis 0 0 0  XYZ 
  end
  begin
     id 7 
     name rfemur
     direction -0.34202 -0.939693 0   
     length 7.45325   
     axis 0 0 -20   XYZ
    dof rx ry rz
    limits (-160.0 20.0)
           (-70.0 70.0)
           (-70.0 60.0)
  end
  begin
     id 8 
     name rtibia
     direction -0.34202 -0.939693 0   
     length 7.49587   
     axis 0 0 -20   XYZ
    dof rx
    limits (-10.0 170.0)
 end
 begin
     id 9 
     name rfoot
     direction -0.106475 -0.292536 0.950308   
     length 2.20898  
     axis -90 -7.62852e-016 -20   XYZ
    dof rx rz
    limits (-45.0 90.0)
           (-20.0 70.0)
  end
  begin
     id 10 
     name rtoes
     direction -1.53597e-011 -4.22023e-011 1   
     length 1.10065   
     axis -90 -7.62852e-016 -20   XYZ
    dof rx
    limits (-90.0 20.0)
  end
  begin
     id 11 
     name lowerback
     direction 0.0260024 0.998026 -0.0571652   
     length 2.11214   
     axis 0 0 0   XYZ
    dof rx ry rz
    limits (-20.0 45.0)
           (-30.0 30.0)
           (-30.0 30.0)
  end
  begin
     id 12 
     name upperback
     direction 0.0216202 0.999542 -0.0211766   
     length 2.11689   
     axis 0 0 0   XYZ
    dof rx ry rz
    limits (-20.0 45.0)
           (-30.0 30.0)
           (-30.0 30.0)
  end
  begin
     id 13 
     name thorax
     direction 0.00883312 0.999944 0.00589057   
     length 2.11821   
     axis 0 0 0   XYZ
    dof rx ry rz
    limits (-20.0 45.0)
           (-30.0 30.0)
           (-30.0 30.0)
  end
  begin
     id 14 
     name lowerneck
     direction -0.059386 0.994433 0.0870401   
     length 1.81176   
     axis 0 0 0   XYZ
    dof rx ry rz
    limits (-20.0 45.0)
           (-30.0 30.0)
           (-30.0 30.0)
  end
  begin
     id 15 
     name upperneck
     direction 0.0506457 0.97328 -0.223967   
     length 1.82382   
     axis 0 0 0   XYZ
    dof rx ry rz
    limits (-20.0 45.0)
           (-30.0 30.0)
           (-30.0 30.0)
  end
  begin
     id 16
     name head
     direction 0.0205902 0.996147 -0.0852487  
     length 1.84805  
     axis 0 0 0   XYZ
    dof rx ry rz
    limits (-20.0 45.0)
           (-30.0 30.0)
           (-30.0 30.0)
  end
  begin
     id 17 
     name lclavicle
     direction 0.949493 0.303881 -0.0782325  
     length 3.60584  
     axis 0 0 0   XYZ
    dof ry rz
    limits (-20.0 10.0)
           (0.0 20.0)
  end
  begin
     id 18 
     name lhumerus
     direction 1 -4.48965e-011 1.48782e-027   
     length 4.95681   
     axis 180 -30 -90   XYZ
    dof rx ry rz
    limits (-60.0 90.0)
           (-90.0 90.0)
           (-90.0 90.0)
  end
  begin
     id 19
     name lradius
     direction 1 -4.48952e-011 2.06528e-027   
     length 3.40915   
     axis 180 -30 -90   XYZ
    dof rx
    limits (-10.0 170.0)
  end
  begin
     id 20
     name lwrist
     direction 1 -4.48964e-011 1.28021e-027   
     length 1.70457   
     axis -1.61767e-015 90 90   XYZ
    dof ry
    limits (-180.0 0.0)
 end
  begin
     id 21 
     name lhand
     direction 1 -4.49094e-011 2.54887e-027   
     length 0.616403   
     axis -1.63363e-015 90 90   XYZ
    dof rx rz
    limits (-90.0 90.0)
           (-45.0 45.0)
  end
  begin
     id 22 
     name lfingers
     direction 1 -4.49002e-011 5.11407e-027   
     length 0.49696   
     axis -3.26723e-015 90 90   XYZ
    dof rx
    limits (0.0 90.0)
  end
  begin
     id 23
     name lthumb
     direction 0.707107 -6.34998e-011 0.707107   
     length 0.713539   
     axis -90 45 -2.25915e-014   XYZ
    dof rx rz
    limits (-45.0 45.0)
           (-45.0 45.0)
  end
  begin
     id 24 
     name rclavicle
     direction -0.937751 0.334612 -0.0930482   
     length 3.46287  
     axis 0 0 0   XYZ 
    dof ry rz
    limits (-10.0 20.0)
           (-20.0 0.0)
  end
  begin
     id 25 
     name rhumerus
     direction -1 -4.48962e-011 3.59972e-027  
     length 5.352   
     axis 180 30 90   XYZ
    dof rx ry rz
    limits (-90.0 60.0)
           (-90.0 90.0)
           (-90.0 90.0)
  end
  begin
     id 26 
     name rradius
     direction -1 -4.48987e-011 -3.76925e-027   
     length 3.43721   
     axis 180 30 90   XYZ
    dof rx
    limits (-10.0 170.0)
  end
  begin
     id 27 
     name rwrist
     direction -1 -4.48943e-011 1.28112e-027   
     length 1.7186   
     axis -1.61767e-015 -90 -90   XYZ
    dof ry
    limits (-180.0 0.0)
  end
  begin
     id 28
     name rhand
     direction -1 -4.49027e-011 2.55483e-027   
     length 0.72009   
     axis -1.63363e-015 -90 -90   XYZ
    dof rx rz
    limits (-90.0 90.0)
           (-45.0 45.0)
  end
  begin
     id 29
     name rfingers
     direction -1 -4.48827e-011 5.14506e-027   
     length 0.580555   
     axis -3.26723e-015 -90 -90   XYZ
    dof rx
    limits (0.0 90.0)
  end
  begin
     id 30
     name rthumb
     direction -0.707107 -6.34936e-011 0.707107   
     length 0.833564   
     axis -90 -45 2.25915e-014   XYZ
    dof rx rz
    limits (-45.0 45.0)
           (-45.0 45.0)
  end
:hierarchy
  begin
    root lhipjoint rhipjoint lowerback
    lhipjoint lfemur
    lfemur ltibia
    ltibia lfoot
    lfoot ltoes
    rhipjoint rfemur
    rfemur rtibia
    rtibia rfoot
    rfoot rtoes
    lowerback upperback
    upperback thorax
    thorax lowerneck lclavicle rclavicle
    lowerneck upperneck
    upperneck head
    lclavicle lhumerus
    lhumerus lradius
    lradius lwrist
    lwrist lhand lthumb
    lhand lfingers
    rclavicle rhumerus
    rhumerus rradius
    rradius rwrist
    rwrist rhand rthumb
    rhand rfingers
  end

#!OML:ASF H:\Terrain\Patient Classification 1\Terrain2\Thursday\justin.ASF
:FULLY-SPECIFIED
:DEGREES
398
root -9.4065 17.5237 -11.0822 -70.1255 77.4546 -72.4982
lowerback 10.5724 1.58451 10.4357
upperback 3.86861 3.54539 4.57448
thorax -1.53145 1.91949 -1.46534
lowerneck -12.9534 -3.52938 -9.0151
upperneck 38.4047 -2.29165 3.92734
head 16.0443 -1.17941 3.08912
rclavicle -7.55382e-015 -9.14409e-015
rhumerus -26.9823 -10.0161 -81.0868
rradius 26.9656
rwrist -11.1421
rhand -20.9083 12.7772
rfingers 7.12502
rthumb 5.46289 -17.1324
lclavicle -7.55382e-015 -9.14409e-015
lhumerus -33.6971 11.8161 84.4712
lradius 26.6236
lwrist 1.06414
lhand -19.1896 19.1145
lfingers 7.12502
lthumb 7.12216 48.9746
rfemur 19.1998 -7.03521 33.8096
rtibia 9.54166e-015
rfoot -4.23024 4.81588
rtoes -9.93232
lfemur -60.1664 5.61725 -9.84922
ltibia 74.7495
lfoot -9.70418 -10.8858
ltoes 25.1814
399
root -9.29681 17.5825 -11.093 -68.2275 78.5396 -71.0545
lowerback 10.2381 1.75744 9.20727
upperback 3.81735 3.5744 4.26078
thorax -1.45841 1.91848 -1.11159
lowerneck -13.204 -3.61734 -9.01421
upperneck 38.501 -2.44402 4.03746
head 16.1716 -1.22994 3.1156
rclavicle -2.96189e-014 -1.74931e-014
rhumerus -26.9515 -10.3363 -81.176
rradius 26.7674
rwrist -11.0166
rhand -21.0409 12.3733
rfingers 7.12502
rthumb 5.33486 -17.5396
lclavicle -2.96189e-014 -1.74931e-014
lhumerus -33.5791 11.2135 84.827
lradius 26.9317
lwrist 1.43106
lhand -18.8841 19.1525
lfingers 7.12502
lthumb 7.41701 49.0025
rfemur 19.007 -6.89787 32.5382
rtibia 0
rfoot -3.24319 4.96938
rtoes -12.1347
lfemur -59.7779 5.36156 -11.1857
ltibia 74.3742
lfoot -10.5903 -10.7147
ltoes 24.555
400
root -9.18637 17.6164 -11.0917 -69.7789 78.2385 -72.8178
lowerback 10.1738 1.7509 9.4163
upperback 3.81104 3.58857 4.3856
thorax -1.42322 1.93014 -1.09444
lowerneck -13.3311 -3.65643 -9.13977
upperneck 38.4513 -2.50169 4.14216
head 16.1878 -1.25982 3.17203
rclavicle -2.01766e-014 -3.10104e-014
rhumerus -27.0532 -10.4896 -81.1933
rradius 26.7181
rwrist -10.6528
rhand -20.7823 12.2354
rfingers 7.12502
rthumb 5.5845 -17.671
lclavicle -2.01766e-014 -3.10104e-014
lhumerus -33.4342 10.7679 85.1856
lradius 27.2003
lwrist 1.61861
lhand -19.1883 19.3881
lfingers 7.12502
lthumb 7.12338 49.2483
rfemur 19.0319 -6.97368 32.8977
rtibia -4.13472e-014
rfoot -2.43475 5.30371
rtoes -13.9925
lfemur -59.4115 5.24776 -10.7446
ltibia 74.1491
lfoot -11.4149 -11.0526
ltoes 21.7334
401
root -9.07411 17.6524 -11.0986 -70.2869 78.3593 -73.508
lowerback 10.119 1.7908 9.33401
upperback 3.76889 3.62188 4.29779
thorax -1.4339 1.94282 -1.14283
lowerneck -13.2489 -3.67059 -8.9957
upperneck 38.3278 -2.56334 4.09286
head 16.1033 -1.27062 3.10833
rclavicle 1.09332e-014 -3.57812e-015
rhumerus -27.3002 -10.9315 -81.2062
rradius 26.6698
rwrist -10.1615
rhand -20.5676 12.4359
rfingers 7.12502
rthumb 5.79182 -17.4649
lclavicle 1.09332e-014 -3.57812e-015
lhumerus -33.3851 10.3304 85.4065
lradius 27.4362
lwrist 1.42779
lhand -19.7693 19.6225
lfingers 7.12502
lthumb 6.5625 49.5008
rfemur 19.0904 -6.98964 32.7147
rtibia 3.18055e-015
rfoot -1.48613 5.6137
rtoes -14.7126
lfemur -58.8993 5.09305 -10.8538
ltibia 73.804
lfoot -12.1787 -11.1412
ltoes 17.9297
402
root -8.96179 17.693 -11.1074 -70.4428 78.7969 -73.7771
lowerback 10.1405 1.84428 8.96299
upperback 3.73303 3.64781 4.12945
thorax -1.49436 1.94697 -1.11994
lowerneck -13.252 -3.77368 -9.00642
upperneck 38.3939 -2.75959 4.23108
head 16.1598 -1.33392 3.14093
rclavicle -3.13086e-014 1.43125e-014
rhumerus -27.5069 -11.3909 -81.2522
rradius 26.5096
rwrist -9.93005
rhand -20.4644 12.8021
rfingers 7.12502
rthumb 5.89144 -17.096
lclavicle -3.13086e-014 1.43125e-014
lhumerus -33.4024 9.98848 85.5784
lradius 27.6486
lwrist 1.14247
lhand -19.9335 19.3616
lfingers 7.12502
lthumb 6.40406 49.2447
rfemur 19.1899 -7.0321 32.1293
rtibia 8.90555e-014
rfoot -0.141222 5.85124
rtoes -13.789
lfemur -58.247 4.89675 -11.3767
ltibia 73.4268
lfoot -12.8847 -10.973
ltoes 14.4683
403
root -8.85297 17.7438 -11.1203 -70.939 79.1686 -74.4076
lowerback 10.165 1.82663 8.66383
upperback 3.71387 3.59034 4.01408
thorax -1.54457 1.91233 -1.07226
lowerneck -13.3331 -3.86095 -9.21675
upperneck 38.4945 -2.9087 4.48361
head 16.2587 -1.39268 3.26964
rclavicle 2.80286e-014 1.07344e-014
rhumerus -27.6267 -11.0832 -81.4457
rradius 26.4993
rwrist -10.2252
rhand -20.3219 12.8589
rfingers 7.12502
rthumb 6.02901 -17.0354
lclavicle 2.80286e-014 1.07344e-014
lhumerus -33.3285 9.61517 85.8524
lradius 27.8667
lwrist 1.33979
lhand -19.8344 18.8223
lfingers 7.12502
lthumb 6.4997 48.7026
rfemur 19.1879 -7.10658 31.5923
rtibia -6.36111e-014
rfoot 1.37172 6.06955
rtoes -12.431
lfemur -57.7107 4.6516 -11.7983
ltibia 73.0777
lfoot -13.4533 -10.9179
ltoes 14.4336
404
root -8.74673 17.7955 -11.1341 -71.1995 79.3863 -74.7776
lowerback 10.2334 1.82733 8.45431
upperback 3.6895 3.57406 3.93165
thorax -1.61725 1.89843 -1.04553
lowerneck -13.2787 -3.84987 -9.15703
upperneck 38.4395 -2.90027 4.44141
head 16.2126 -1.38598 3.2391
rclavicle 5.77469e-014 6.2816e-014
rhumerus -27.7379 -10.5611 -81.6509
rradius 26.5968
rwrist -10.5839
rhand -20.2926 12.5367
rfingers 7.12502
rthumb 6.05732 -17.3567
lclavicle 5.77469e-014 6.2816e-014
lhumerus -33.2034 8.91053 86.1506
lradius 28.0989
lwrist 1.8585
lhand -19.7079 18.4795
lfingers 7.12502
lthumb 6.62185 48.356
rfemur 19.2139 -7.09805 31.2377
rtibia -9.54166e-015
rfoot 2.81724 6.26947
rtoes -12.6601
lfemur -57.2165 4.59605 -12.1158
ltibia 72.7768
lfoot -13.9142 -10.961
ltoes 14.6256
405
root -8.63881 17.8427 -11.1391 -71.2931 79.3988 -74.9143
lowerback 10.354 1.88908 8.2323
upperback 3.68728 3.65161 3.99331
thorax -1.69906 1.93327 -0.873827
lowerneck -13.1331 -3.86865 -9.08052
upperneck 38.2683 -2.9163 4.289
head 16.0843 -1.40193 3.1473
rclavicle -1.66979e-014 6.36111e-015
rhumerus -27.8059 -10.461 -81.6367
rradius 26.5401
rwrist -10.4429
rhand -20.4177 12.3433
rfingers 7.12502
rthumb 5.93658 -17.5536
lclavicle -1.66979e-014 6.36111e-015
lhumerus -33.1467 8.4228 86.48
lradius 28.3091
lwrist 1.97013
lhand -19.7324 18.6147
lfingers 7.12502
lthumb 6.59813 48.4919
rfemur 19.3726 -7.00293 31.101
rtibia -6.36111e-015
rfoot 4.32712 6.49395
rtoes -12.8744
lfemur -56.6264 4.67605 -12.2008
ltibia 72.483
lfoot -14.1967 -10.975
ltoes 13.1534
406
root -8.53165 17.8908 -11.1403 -72.1297 79.2696 -75.756
lowerback 10.467 1.87814 8.13806
upperback 3.71937 3.64904 4.12547
thorax -1.74328 1.93293 -0.689248
lowerneck -13.0017 -3.90196 -9.30659
upperneck 38.1605 -2.99325 4.49258
head 16.0148 -1.43971 3.25983
rclavicle 9.14409e-015 -8.34896e-015
rhumerus -27.8586 -10.3591 -81.6593
rradius 26.4806
rwrist -10.1186
rhand -20.484 12.3707
rfingers 7.12502
rthumb 5.87257 -17.5279
lclavicle 9.14409e-015 -8.34896e-015
lhumerus -33.146 8.16323 86.7897
lradius 28.5557
lwrist 1.65422
lhand -19.5152 18.9354
lfingers 7.12502
lthumb 6.80779 48.8059
rfemur 19.5593 -7.00098 31.1681
rtibia 1.27222e-014
rfoot 5.82198 6.85099
rtoes -13.7268
lfemur -55.9767 4.70626 -12.088
ltibia 72.1454
lfoot -14.5556 -10.9304
ltoes 10.9994
407
root -8.42467 17.9519 -11.143 -72.728 79.3698 -76.3876
lowerback 10.527 1.85844 7.92753
upperback 3.74318 3.60646 4.11635
thorax -1.76744 1.91057 -0.580885
lowerneck -12.9562 -3.96268 -9.62781
upperneck 38.1892 -3.1202 4.84177
head 16.0489 -1.49254 3.45164
rclavicle -2.60408e-014 -4.21423e-014
rhumerus -27.9294 -9.88862 -81.8785
rradius 26.5426
rwrist -10.0642
rhand -20.4451 12.4348
rfingers 7.12502
rthumb 5.91007 -17.4628
lclavicle -2.60408e-014 -4.21423e-014
lhumerus -33.0732 7.60632 87.0652
lradius 28.8099
lwrist 1.5988
lhand -19.1312 18.8593
lfingers 7.12502
lthumb 7.17851 48.7176
rfemur 19.6223 -7.03242 31.0283
rtibia -4.13472e-014
rfoot 7.46535 7.24446
rtoes -15.8256
lfemur -55.2725 4.70827 -12.2352
ltibia 71.718
lfoot -15.099 -10.9206
ltoes 9.0772
408
root -8.31918 18.0206 -11.1417 -72.6588 79.6212 -76.3992
lowerback 10.5681 1.96434 7.5658
upperback 3.75135 3.7047 4.0068
thorax -1.79163 1.95516 -0.50836
lowerneck -12.9112 -4.1208 -9.58596
upperneck 38.1364 -3.40121 4.89994
head 16.0403 -1.59611 3.41909
rclavicle -3.68746e-014 -1.47101e-014
rhumerus -27.9496 -9.60181 -82.0848
rradius 26.6522
rwrist -10.1329
rhand -20.5299 12.2934
rfingers 7.12502
rthumb 5.82821 -17.6064
lclavicle -3.68746e-014 -1.47101e-014
lhumerus -32.834 6.75198 87.3892
lradius 29.0089
lwrist 1.94796
lhand -19.5279 18.859
lfingers 7.12502
lthumb 6.79561 48.73
rfemur 19.5931 -6.98557 30.6856
rtibia 9.54166e-015
rfoot 9.60092 7.23139
rtoes -14.6735
lfemur -54.5505 4.73309 -12.5152
ltibia 71.2174
lfoot -15.4376 -11.0738
ltoes 8.46066
409
root -8.21873 18.0867 -11.1425 -73.0913 79.7302 -77.0427
lowerback 10.4788 2.08189 7.42639
upperback 3.73242 3.82891 3.8992
thorax -1.75658 2.015 -0.552898
lowerneck -12.7793 -4.24759 -9.37062
upperneck 37.9623 -3.68254 4.90886
head 15.9394 -1.68148 3.32839
rclavicle 2.36554e-014 2.82274e-014
rhumerus -27.9423 -9.50752 -82.2937
rradius 26.7783
rwrist -10.1613
rhand -20.6125 12.0821
rfingers 7.12502
rthumb 5.74846 -17.82
lclavicle 2.36554e-014 2.82274e-014
lhumerus -32.5378 5.85864 87.577
lradius 29.2056
lwrist 2.27196
lhand -19.6793 18.8826
lfingers 7.12502
lthumb 6.64938 48.7582
rfemur 19.402 -6.97531 30.4847
rtibia 4.13472e-014
rfoot 11.9805 6.78586
rtoes -9.51339
lfemur -53.9972 4.7039 -12.6165
ltibia 70.6652
lfoot -15.5395 -11.2178
ltoes 9.35348
410
root -8.11785 18.1555 -11.1508 -73.0863 79.8556 -77.2062
lowerback 10.384 2.09099 7.17267
upperback 3.74935 3.79969 3.84984
thorax -1.70239 2.00015 -0.456245
lowerneck -12.7037 -4.19899 -9.25066
upperneck 37.8347 -3.66185 4.91081
head 15.8477 -1.65689 3.30552
rclavicle 6.16232e-015 2.3059e-014
rhumerus -27.8506 -9.00697 -82.5061
rradius 26.8071
rwrist -9.93697
rhand -20.0829 11.9976
rfingers 7.12502
rthumb 6.25975 -17.8899
lclavicle 6.16232e-015 2.3059e-014
lhumerus -32.3593 5.57977 87.5631
lradius 29.4417
lwrist 2.14201
lhand -18.9797 18.5589
lfingers 7.12502
lthumb 7.32471 48.4121
rfemur 19.2329 -6.89387 30.2187
rtibia 9.54166e-015
rfoot 14.2514 6.30276
rtoes -6.0402
lfemur -53.3342 4.65263 -12.7845
ltibia 70.0361
lfoot -15.6179 -11.2472
ltoes 11.7901
411
root -8.01707 18.2255 -11.1637 -71.7869 80.156 -75.9939
lowerback 10.4081 2.11654 6.73632
upperback 3.75866 3.7832 3.75596
thorax -1.72988 1.98717 -0.312694
lowerneck -12.6387 -4.10833 -9.22847
upperneck 37.7859 -3.56397 4.97423
head 15.7963 -1.60501 3.34403
rclavicle -8.44835e-015 -3.77691e-014
rhumerus -27.7957 -8.35333 -82.6935
rradius 26.9291
rwrist -9.73789
rhand -19.3883 11.8385
rfingers 7.12502
rthumb 6.93036 -18.0281
lclavicle -8.44835e-015 -3.77691e-014
lhumerus -32.2697 5.52981 87.6151
lradius 29.6883
lwrist 1.77887
lhand -18.8355 18.3443
lfingers 7.12502
lthumb 7.46395 48.1927
rfemur 17.7213 -6.70106 29.6963
rtibia 2.86139
rfoot 14.8903 6.25718
rtoes -5.88858
lfemur -52.5263 4.68992 -13.2133
ltibia 69.3669
lfoot -15.8295 -11.1806
ltoes 12.228
